<?xml version="1.0" encoding="UTF-8"?>
<svg version="1.1" xmlns="http://www.w3.org/2000/svg" width="1188" height="1188">
<path d="M0 0 C11.35739987 9.42909313 18.39560233 21.51957219 21 36 C21.0996803 37.55652157 21.15743505 39.1161939 21.17700195 40.67578125 C21.19625481 42.02373779 21.19625481 42.02373779 21.21589661 43.39892578 C21.22328354 44.36040527 21.23067047 45.32188477 21.23828125 46.3125 C21.246353 47.31780762 21.25442474 48.32311523 21.26274109 49.35888672 C21.27655346 51.48712455 21.2872883 53.61538427 21.29516602 55.74365234 C21.30664612 57.90029482 21.32703432 60.05690977 21.35668945 62.21337891 C21.6250567 81.74871523 19.76461086 98.35360605 5.625 113.1875 C-5.9020256 124.64465369 -20.44231724 129.38253574 -36.4140625 129.3737793 C-47.50342833 129.08803358 -57.40142591 125.39643336 -67 120 C-76.3713181 133.71131377 -85.03171862 147.4006602 -91 163 C-91.34160156 163.86496094 -91.68320312 164.72992187 -92.03515625 165.62109375 C-95.99763834 177.43481942 -95.98430733 192.43602975 -90.4453125 203.640625 C-88.5478695 206.73807249 -86.45878598 209.33046094 -84 212 C-84 212.66 -84 213.32 -84 214 C-83.41863281 214.27328125 -82.83726562 214.5465625 -82.23828125 214.828125 C-80.04161052 215.97821439 -78.18412049 217.28502402 -76.1875 218.75 C-56.24684654 232.14199879 -30.87581015 233.42600783 -7.625 233.375 C-6.68658264 233.37445618 -5.74816528 233.37391235 -4.78131104 233.37335205 C13.07939829 233.32614047 30.38215208 231.86156822 48 229 C48.66759338 228.89345093 49.33518677 228.78690186 50.02301025 228.67712402 C130.3130621 215.83743557 208.09739791 188.37604117 282 155 C282.93326111 154.57914124 282.93326111 154.57914124 283.88537598 154.14978027 C288.38971677 152.11670251 292.88479806 150.06409461 297.375 148 C298.5290332 147.47164551 299.68306641 146.94329102 300.87207031 146.39892578 C312.44223696 141.19206731 312.44223696 141.19206731 321.875 132.9375 C322.42929687 132.28652344 322.98359375 131.63554688 323.5546875 130.96484375 C326.93250386 126.37283935 327.28591882 122.7711323 327.1875 117.125 C327.18685547 116.43019531 327.18621094 115.73539063 327.18554688 115.01953125 C327.15077526 110.91648064 326.78859955 107.02501211 326 103 C330 103 330 103 331.7109375 104.609375 C332.26007813 105.31578125 332.80921875 106.0221875 333.375 106.75 C338.14403618 112.45671137 342.63220131 115.52137879 349.98828125 116.828125 C356.0538466 117.17427918 362.03932621 116.03318346 368 115 C367.65921487 117.97551195 367.37899793 119.59845299 365.29296875 121.80859375 C364.59816406 122.34613281 363.90335938 122.88367188 363.1875 123.4375 C358.54108262 127.26787992 355.16321501 130.90696897 354 137 C353.6394365 143.73405357 354.12470555 150.32587982 355 157 C351.08494969 156.30234953 349.97548879 154.8077713 347.5546875 151.6953125 C342.72161427 146.42507687 336.88002197 143.30431545 329.8125 142.75 C322.32186359 143.24118927 315.5604833 146.5009593 308.85546875 149.703125 C307.29506813 150.43610245 305.73451457 151.16875437 304.17382812 151.90112305 C303.36244385 152.28376312 302.55105957 152.6664032 301.71508789 153.06063843 C225.74440325 188.80879708 145.42469919 217.76410668 24 238 C23.03787598 238.0928125 22.07575195 238.185625 21.08447266 238.28125 C11.55946904 239.11821878 2.05519071 239.24305753 -7.5 239.25 C-8.75907166 239.25101212 -8.75907166 239.25101212 -10.0435791 239.25204468 C-22.89670318 239.23566835 -35.40745546 238.81389975 -48 236 C-49.17248291 235.74259033 -49.17248291 235.74259033 -50.36865234 235.47998047 C-68.02011885 231.44978438 -83.99074277 224.38123334 -94.75390625 209.10546875 C-102.39970455 196.18670611 -102.61363409 181.28708054 -99.18334961 166.95629883 C-95.07555762 151.96444248 -87.17807225 137.75122728 -78.19140625 125.15625 C-75.90021142 121.85627598 -73.94621537 118.51116759 -72 115 C-72.49628906 114.51273438 -72.99257813 114.02546875 -73.50390625 113.5234375 C-85.43916395 101.0672862 -90.14122622 85.79226739 -90.16796875 68.765625 C-90.17129715 68.00634705 -90.17462555 67.24706909 -90.17805481 66.46478271 C-90.1830834 64.86812946 -90.18546441 63.27146585 -90.18530273 61.67480469 C-90.18748188 59.27000015 -90.20566098 56.86566077 -90.22460938 54.4609375 C-90.29349711 36.0723078 -87.54679771 20.28404662 -75 6 C-54.66703452 -14.11092062 -23.16957634 -17.17119385 0 0 Z M-50 30 C-53.47040746 36.01838092 -54.60918244 41.4025372 -54.56640625 48.27734375 C-54.57260483 49.12873428 -54.57880341 49.98012482 -54.58518982 50.85731506 C-54.59224314 52.64469266 -54.58919317 54.43213658 -54.57641602 56.21948242 C-54.56254776 58.92817099 -54.59668837 61.63339872 -54.63476562 64.34179688 C-54.71464725 77.43240915 -54.71464725 77.43240915 -49 89 C-44.55474402 93.44525598 -40.3338531 95.09320636 -34.125 95.375 C-28.33307662 95.23730197 -24.72025711 93.70578766 -20.53125 89.5390625 C-13.16749252 81.10499143 -13.81339595 71.86916031 -13.81469727 61.14892578 C-13.81251284 59.13682827 -13.79431611 57.12528204 -13.77539062 55.11328125 C-13.72240936 41.1483838 -13.72240936 41.1483838 -20 29 C-24.93221689 24.44718441 -29.14986727 22.55402167 -35.94921875 22.74609375 C-41.40530046 23.42160863 -46.21413829 26.1118177 -50 30 Z " fill="#4DA8D9" transform="translate(358,513)"/>
<path d="M0 0 C73.87218045 0 73.87218045 0 85.75390625 10.55859375 C92.19706492 17.29242123 94.2236387 25.43336503 94.5 34.5625 C94.12304846 46.18909907 90.08445409 52.88234487 82 61 C81.42378906 61.57878906 80.84757813 62.15757812 80.25390625 62.75390625 C79.84011719 63.16511719 79.42632813 63.57632813 79 64 C79.64066406 64.4125 80.28132812 64.825 80.94140625 65.25 C90.68205287 71.75344215 97.40293038 78.24403397 100 90 C101.25556829 100.62702649 99.27584747 109.82231232 92.9375 118.5 C91.0938242 120.80826254 89.21057432 123.03504505 87 125 C86.34 125 85.68 125 85 125 C85.495 130.445 85.495 130.445 86 136 C82 134 82 134 80.6875 132.3125 C80.130625 131.879375 79.57375 131.44625 79 131 C76.66286651 131.30555296 74.33000358 131.64413643 72 132 C69.53308744 132.08297691 67.06425113 132.11786336 64.59594727 132.11352539 C63.88142615 132.11364593 63.16690504 132.11376646 62.43073177 132.11389065 C60.14259039 132.1131507 57.85453286 132.10556479 55.56640625 132.09765625 C54.14383992 132.09618398 52.72127304 132.09516503 51.29870605 132.09460449 C46.05329572 132.08938462 40.80789701 132.07542336 35.5625 132.0625 C23.826875 132.041875 12.09125 132.02125 0 132 C0 88.44 0 44.88 0 0 Z " fill="#4DA8D9" transform="translate(558,506)"/>
<path d="M0 0 C9.41060546 7.52293239 15.62649266 17.13246331 18 29 C18 32.63 18 36.26 18 40 C7.44 40 -3.12 40 -14 40 C-14.66 36.7 -15.32 33.4 -16 30 C-19.60571104 24.54270761 -22.59926109 22.75571976 -28.8125 21.375 C-36.42202623 20.47976162 -42.89678578 20.93413667 -50 24 C-52.39850583 25.96731377 -52.94844082 26.83059125 -53.875 29.875 C-54.02854831 33.71370779 -53.29905979 34.96224661 -51 38 C-41.38410606 43.3810827 -29.74165898 45.05847012 -19.08398438 47.31640625 C-5.35627246 50.3450959 6.75211132 54.23110656 15.4375 65.9375 C20.90013016 75.57743557 21.10996216 88.19084657 18.28125 98.66015625 C13.71439492 111.39617021 4.1461678 119.48429088 -7.86328125 125.16015625 C-26.49913744 132.48503574 -47.72209338 131.75966158 -66.375 124.875 C-76.06255478 120.51955984 -84.44242416 112.15132368 -89.05078125 102.5703125 C-92.11541199 94.27184736 -93 85.80115327 -93 77 C-82.44 77 -71.88 77 -61 77 C-60.01 80.96 -59.02 84.92 -58 89 C-54.55469727 93.8639568 -49.71121389 96.51428562 -44 98 C-34.56532486 98.91205238 -26.48966482 98.70552375 -18.5 93.3125 C-16.63452893 90.43656543 -16.44431626 88.36499719 -16.2734375 85 C-17.49597266 81.63474192 -19.94373379 80.67658032 -23 79 C-26.51508094 77.81055839 -26.51508094 77.81055839 -30.3125 77 C-31.00327637 76.83685303 -31.69405273 76.67370605 -32.40576172 76.50561523 C-35.32368031 75.81999307 -38.24853514 75.16723595 -41.17431641 74.51611328 C-76.05697806 66.74072932 -76.05697806 66.74072932 -85.8515625 52.10546875 C-91.18684325 42.32412071 -91.67317491 30.31802557 -88.875 19.625 C-85.13415538 9.1332358 -77.90778227 1.40206088 -68.125 -3.75 C-47.42114931 -13.41815762 -19.09416243 -13.65557746 0 0 Z " fill="#4DA8DA" transform="translate(500,512)"/>
<path d="M0 0 C9.31735291 9.04241463 15.4606113 19.24872051 15.79272461 32.50048828 C16.08309934 66.44923753 -4.77635968 95.16182136 -26.5 119.5625 C-27.82 119.2325 -29.14 118.9025 -30.5 118.5625 C-30.15723486 113.14057872 -26.95078741 110.11205969 -23.5625 106.1875 C-6.44956834 85.69849986 11.74326822 58.50138607 9.5 30.5625 C7.24469014 17.97183316 1.50009537 8.72212816 -8.60546875 0.94140625 C-50.1104037 -26.5618639 -116.86785441 -12.73451202 -161.74313354 -3.73429871 C-192.44555456 2.55021674 -222.71628689 10.84795375 -252.5 20.5625 C-253.25845215 20.80915405 -254.0169043 21.05580811 -254.79833984 21.30993652 C-289.41078628 32.58816978 -323.19551442 45.8750469 -356.5 60.5625 C-357.10970642 60.83082642 -357.71941284 61.09915283 -358.34759521 61.37561035 C-367.42858426 65.37277415 -376.47743531 69.43487095 -385.5 73.5625 C-386.3883252 73.96484863 -387.27665039 74.36719727 -388.19189453 74.78173828 C-397.85664577 79.18942979 -405.70003107 83.50629952 -411.5 92.75 C-413.62187909 100.83966402 -412.78521671 109.36924345 -411.5 117.5625 C-414.94037693 117.00380631 -416.19710633 116.08994438 -418.25 113.3125 C-422.08411865 108.57107083 -426.72303945 105.48815352 -432.5 103.5625 C-439.56527725 103.20181017 -446.49835861 103.62894781 -453.5 104.5625 C-452.95338858 100.82596222 -451.60543659 99.49369849 -448.6875 97.1875 C-444.25385617 93.48485121 -441.35636924 90.13160773 -439.5 84.5625 C-439.18073476 77.17244873 -439.33103326 69.86854214 -440.5 62.5625 C-436.26834973 63.04889658 -434.4858533 65.39676964 -431.6875 68.4375 C-426.21257817 74.01602297 -422.11900821 76.60661713 -414.23828125 77.0546875 C-406.65590952 76.98044011 -400.77554003 73.99726517 -394.18103027 70.63952637 C-390.47517553 68.75553003 -386.7285534 66.9550382 -382.98828125 65.140625 C-382.21173187 64.7613385 -381.4351825 64.382052 -380.63510132 63.99127197 C-372.11587021 59.84695898 -363.45385603 56.05013703 -354.75 52.3125 C-353.97287659 51.97850189 -353.19575317 51.64450378 -352.39508057 51.30038452 C-280.6658999 20.5349721 -205.11075642 -5.77122601 -127.5 -16.4375 C-126.3248584 -16.59976074 -125.1497168 -16.76202148 -123.93896484 -16.92919922 C-85.9997644 -21.9384764 -31.0550989 -27.04498102 0 0 Z " fill="#80D8C3" transform="translate(946.5,376.4375)"/>
<path d="M0 0 C3.1005609 1.34401996 4.81658583 2.71185399 6.875 5.375 C11.41460689 10.80671869 16.02695181 13.59150292 22.98828125 14.828125 C29.0538466 15.17427918 35.03932621 14.03318346 41 13 C40.65921487 15.97551195 40.37899793 17.59845299 38.29296875 19.80859375 C37.59816406 20.34613281 36.90335938 20.88367188 36.1875 21.4375 C31.54108262 25.26787992 28.16321501 28.90696897 27 35 C26.6394365 41.73405357 27.12470555 48.32587982 28 55 C24.08494969 54.30234953 22.97548879 52.8077713 20.5546875 49.6953125 C15.72161427 44.42507687 9.88002197 41.30431545 2.8125 40.75 C-4.67813641 41.24118927 -11.4395167 44.5009593 -18.14453125 47.703125 C-19.70493187 48.43610245 -21.26548543 49.16875437 -22.82617188 49.90112305 C-23.63755615 50.28376312 -24.44894043 50.6664032 -25.28491211 51.06063843 C-101.25559675 86.80879708 -181.57530081 115.76410668 -303 136 C-303.96212402 136.0928125 -304.92424805 136.185625 -305.91552734 136.28125 C-315.44053096 137.11821878 -324.94480929 137.24305753 -334.5 137.25 C-335.75907166 137.25101212 -335.75907166 137.25101212 -337.0435791 137.25204468 C-349.89670318 137.23566835 -362.40745546 136.81389975 -375 134 C-376.17248291 133.74259033 -376.17248291 133.74259033 -377.36865234 133.47998047 C-395.02011885 129.44978438 -410.99074277 122.38123334 -421.75390625 107.10546875 C-429.39970455 94.18670611 -429.61363409 79.28708054 -426.18334961 64.95629883 C-421.72019445 48.66750398 -412.85046876 33.58221631 -403 20 C-402.06939053 18.69857545 -401.13969792 17.39649477 -400.2109375 16.09375 C-399.48132813 15.0728125 -398.75171875 14.051875 -398 13 C-395.525 14.485 -395.525 14.485 -393 16 C-393.38929688 16.6084375 -393.77859375 17.216875 -394.1796875 17.84375 C-395.39156049 19.74253717 -396.59945031 21.64386891 -397.8046875 23.546875 C-399.33583811 25.96359484 -400.88639991 28.36673362 -402.4453125 30.765625 C-414.57728822 49.5841858 -423.81820239 69.00110354 -421 92 C-419.16410469 99.19309802 -415.98393577 104.58886974 -411 110 C-411 110.66 -411 111.32 -411 112 C-410.41863281 112.27328125 -409.83726562 112.5465625 -409.23828125 112.828125 C-407.04161052 113.97821439 -405.18412049 115.28502402 -403.1875 116.75 C-383.24684654 130.14199879 -357.87581015 131.42600783 -334.625 131.375 C-333.68658264 131.37445618 -332.74816528 131.37391235 -331.78131104 131.37335205 C-313.92060171 131.32614047 -296.61784792 129.86156822 -279 127 C-277.99860992 126.84017639 -277.99860992 126.84017639 -276.97698975 126.67712402 C-196.6869379 113.83743557 -118.90260209 86.37604117 -45 53 C-44.06673889 52.57914124 -44.06673889 52.57914124 -43.11462402 52.14978027 C-38.61028323 50.11670251 -34.11520194 48.06409461 -29.625 46 C-28.4709668 45.47164551 -27.31693359 44.94329102 -26.12792969 44.39892578 C-14.55776304 39.19206731 -14.55776304 39.19206731 -5.125 30.9375 C-4.57070313 30.28652344 -4.01640625 29.63554688 -3.4453125 28.96484375 C-0.06749614 24.37283935 0.28591882 20.7711323 0.1875 15.125 C0.18685547 14.43019531 0.18621094 13.73539063 0.18554688 13.01953125 C0.15819477 9.79198273 -0.0431867 6.74087981 -0.57421875 3.5546875 C-0.71472656 2.71164062 -0.85523438 1.86859375 -1 1 C-0.67 0.67 -0.34 0.34 0 0 Z " fill="#7FD7C3" transform="translate(685,615)"/>
<path d="M0 0 C0.62132812 0.391875 1.24265625 0.78375 1.8828125 1.1875 C2.50414062 1.538125 3.12546875 1.88875 3.765625 2.25 C10.63657049 6.5331868 14.80085954 13.47761941 16.8828125 21.1875 C17.84944342 31.303405 17.33440532 40.18796696 11.1640625 48.50390625 C8.57176064 51.57402646 6.23969451 53.94957866 2.8828125 56.1875 C3.74003906 56.78175781 4.59726562 57.37601563 5.48046875 57.98828125 C13.10808488 63.44756745 18.64618432 68.61246279 22.8828125 77.1875 C23.41841797 78.24324219 23.41841797 78.24324219 23.96484375 79.3203125 C27.54302166 87.91447497 27.18435122 99.41885344 24.2578125 108.125 C18.69310065 121.10284198 10.15840524 129.06834054 -2.81640625 134.26953125 C-13.06712861 137.12032386 -25.79790448 136.36487946 -35.1171875 131.1875 C-45.58631894 124.45258105 -51.84508322 116.12728846 -55.73828125 104.30078125 C-58.07059788 91.29270601 -55.46525309 79.69565297 -48.22265625 68.80859375 C-44.01766431 63.57380787 -38.66167651 59.883826 -33.1171875 56.1875 C-33.63667969 55.78660156 -34.15617188 55.38570312 -34.69140625 54.97265625 C-40.81913303 49.97759615 -45.68520193 44.17797948 -47.1171875 36.1875 C-47.7388505 27.43326197 -47.85195661 19.83477511 -43.1171875 12.1875 C-42.7665625 11.56488281 -42.4159375 10.94226563 -42.0546875 10.30078125 C-33.71994827 -3.04058954 -13.65866726 -7.47850983 0 0 Z M-34.6171875 14.1875 C-39.28208227 20.91362734 -39.92392164 27.15158977 -39.1171875 35.1875 C-37.29202465 42.32890901 -31.88234347 46.95228876 -26.1171875 51.1875 C-20.49745118 54.05715259 -13.68086858 54.23066614 -7.6484375 52.46484375 C-0.37327778 49.469903 3.81014573 44.8783097 7.8828125 38.1875 C10.1423451 31.40890221 9.78580706 24.21360378 6.7578125 17.75 C3.47559976 11.99690801 -0.6937409 8.11204473 -7.01171875 5.69921875 C-17.59123314 3.12794531 -27.778932 5.46624661 -34.6171875 14.1875 Z M-41.09765625 73.55078125 C-47.59663295 82.38134959 -49.11635041 90.3134933 -48.1171875 101.1875 C-46.17227775 110.24634137 -40.19928611 117.64789139 -32.671875 122.890625 C-24.12081221 127.8011363 -15.04142878 128.6227769 -5.328125 126.609375 C3.52508948 123.51777629 10.70797848 117.14105308 14.9453125 108.8125 C18.76312027 100.25300215 19.27125617 91.4463904 16.3828125 82.4375 C12.80162033 73.78715554 6.27010342 67.25303002 -2.1171875 63.1875 C-16.13930036 57.52472365 -31.54982201 62.15740903 -41.09765625 73.55078125 Z " fill="#4DA8DA" transform="translate(899.1171875,505.8125)"/>
<path d="M0 0 C0 29.7 0 59.4 0 90 C7.59 90 15.18 90 23 90 C23 92.64 23 95.28 23 98 C15.41 98 7.82 98 0 98 C0 109.22 0 120.44 0 132 C-2.64 132 -5.28 132 -8 132 C-8 120.78 -8 109.56 -8 98 C-28.79 98 -49.58 98 -71 98 C-71 87.88027656 -71 87.88027656 -68.71875 84.9921875 C-67.96283569 83.99566162 -67.96283569 83.99566162 -67.19165039 82.97900391 C-66.63340576 82.28468262 -66.07516113 81.59036133 -65.5 80.875 C-64.29823091 79.29881626 -63.09913766 77.7205897 -61.90234375 76.140625 C-61.26538574 75.30982422 -60.62842773 74.47902344 -59.97216797 73.62304688 C-56.53468496 69.05108383 -53.30841618 64.33390317 -50.0625 59.625 C-48.70230621 57.66242538 -47.34163008 55.70018495 -45.98046875 53.73828125 C-45.31450684 52.77744629 -44.64854492 51.81661133 -43.96240234 50.82666016 C-39.81424938 44.85162718 -35.63570915 38.8978521 -31.4609375 32.94140625 C-29.04485118 29.49409726 -26.63414344 26.04309799 -24.2265625 22.58984375 C-23.60281738 21.69612061 -22.97907227 20.80239746 -22.33642578 19.8815918 C-21.1540173 18.18720453 -19.97262136 16.49211 -18.79248047 14.79614258 C-17.72108502 13.2619465 -16.640816 11.73390018 -15.55078125 10.21289062 C-14.50475533 8.7202617 -13.50238168 7.19620634 -12.54296875 5.64648438 C-11.82560547 4.54530273 -11.82560547 4.54530273 -11.09375 3.421875 C-10.68833984 2.7628418 -10.28292969 2.10380859 -9.86523438 1.42480469 C-8 0 -8 0 0 0 Z M-9 15 C-9.86562243 16.14712254 -10.68436367 17.3296309 -11.484375 18.5234375 C-12.00080566 19.28809326 -12.51723633 20.05274902 -13.04931641 20.84057617 C-13.61054199 21.67693604 -14.17176758 22.5132959 -14.75 23.375 C-19.27316698 30.05680856 -23.87331878 36.66618769 -28.625 43.1875 C-33.14418808 49.39725165 -37.56204343 55.66286107 -41.88916016 62.0078125 C-45.86570048 67.83211177 -49.93235342 73.59033575 -54.02954102 79.33032227 C-54.50447998 79.99862061 -54.97941895 80.66691895 -55.46875 81.35546875 C-55.88576172 81.93965576 -56.30277344 82.52384277 -56.73242188 83.12573242 C-58.24336409 85.35984324 -59.61236789 87.68727981 -61 90 C-43.51 90 -26.02 90 -8 90 C-8 65.25 -8 40.5 -8 15 C-8.33 15 -8.66 15 -9 15 Z " fill="#4DA8DA" transform="translate(768,506)"/>
<path d="M0 0 C4.49625 -0.0825 8.9925 -0.165 13.625 -0.25 C15.03217285 -0.28641602 16.4393457 -0.32283203 17.88916016 -0.36035156 C29.39144051 -0.46277026 29.39144051 -0.46277026 34 4 C37.12211784 8.33067958 37.35397385 11.70299948 36.59375 16.80859375 C35.69195979 20.13691157 34.13618978 22.31253544 32 25 C32.78375 25.5775 33.5675 26.155 34.375 26.75 C38.26315524 30.08270449 38.87163265 31.69493189 39.375 36.8125 C39.24331184 41.51815676 37.75448042 44.20328375 35 48 C30.96521263 51.07738019 27.96016467 51.35693827 22.94921875 51.29296875 C21.74354248 51.28547607 20.53786621 51.2779834 19.2956543 51.27026367 C17.77496338 51.24295166 16.25427246 51.21563965 14.6875 51.1875 C9.840625 51.125625 4.99375 51.06375 0 51 C0 34.17 0 17.34 0 0 Z " fill="#FFD66B" transform="translate(561,772)"/>
<path d="M0 0 C2.96868023 2.60780855 4.73861307 5.21583921 6 9 C6.03954234 11.33299825 6.04401732 13.66708189 6 16 C1.71 16 -2.58 16 -7 16 C-7.33 14.02 -7.66 12.04 -8 10 C-12.65537393 9.16203269 -16.37078475 8.9838308 -21 10 C-21 11.65 -21 13.3 -21 15 C-19.26363281 15.38091797 -19.26363281 15.38091797 -17.4921875 15.76953125 C-15.9530329 16.11677954 -14.41397547 16.46445867 -12.875 16.8125 C-12.11445312 16.97814453 -11.35390625 17.14378906 -10.5703125 17.31445312 C-4.03219486 18.80807483 1.54516893 20.72020022 6 26 C7.79910157 31.39730471 7.69468904 36.10048284 5.375 41.25 C2.61180921 46.1946572 -1.02982647 48.24224095 -6.25 50.25 C-14.19069677 51.83813935 -21.63934921 51.64388653 -29 48 C-32.90130158 44.86199656 -35.221176 41.68111578 -37 37 C-37.1875 33.125 -37.1875 33.125 -37 30 C-32.71 30 -28.42 30 -24 30 C-23.34 31.65 -22.68 33.3 -22 35 C-18.79619983 37.13586678 -17.98060033 37.23132175 -14.3125 37.125 C-13.50425781 37.10695313 -12.69601562 37.08890625 -11.86328125 37.0703125 C-11.24839844 37.04710937 -10.63351562 37.02390625 -10 37 C-9.34 35.68 -8.68 34.36 -8 33 C-11.47101158 30.68599228 -14.75243912 30.05915885 -18.75 29.1875 C-25.65958119 27.56312336 -31.37709279 26.10541999 -35.4375 19.75 C-36.56466806 14.23940058 -36.91072184 9.78771324 -34.3125 4.6875 C-25.28163644 -5.80782792 -11.75896889 -6.81770005 0 0 Z " fill="#FFD66B" transform="translate(702,774)"/>
<path d="M0 0 C4.55275658 3.63878856 7.26191249 7.13256873 7.9375 13 C7.958125 14.32 7.97875 15.64 8 17 C3.71 17 -0.58 17 -5 17 C-5.37125 16.030625 -5.7425 15.06125 -6.125 14.0625 C-7.69963671 10.76394124 -7.69963671 10.76394124 -10.875 10 C-14.12876995 10 -16.11133947 10.55566974 -19 12 C-18.67 13.32 -18.34 14.64 -18 16 C-16.77023437 16.31453125 -15.54046875 16.6290625 -14.2734375 16.953125 C-12.64046957 17.38482917 -11.00766558 17.81715378 -9.375 18.25 C-8.56675781 18.45496094 -7.75851562 18.65992188 -6.92578125 18.87109375 C-1.3607444 20.36415242 3.87201132 21.98637441 7.3515625 26.9140625 C9.05814437 32.4039102 8.81720254 38.16129428 6.5 43.375 C2.29088982 47.79456569 -2.74767657 51.54251292 -9 52 C-9.65613281 52.05027344 -10.31226563 52.10054687 -10.98828125 52.15234375 C-18.33338499 52.46948985 -24.12125972 50.75923017 -30.375 46.9375 C-34.40725855 42.42521067 -36 37.03639352 -36 31 C-31.71 31 -27.42 31 -23 31 C-22.54625 31.969375 -22.0925 32.93875 -21.625 33.9375 C-20.34213779 37.07079582 -20.34213779 37.07079582 -18 38 C-16.50243129 38.09499503 -15.00057068 38.12987198 -13.5 38.125 C-12.7059375 38.12757813 -11.911875 38.13015625 -11.09375 38.1328125 C-8.94081466 38.13277996 -8.94081466 38.13277996 -7 37 C-7 35.68 -7 34.36 -7 33 C-8.84464844 32.52820313 -8.84464844 32.52820313 -10.7265625 32.046875 C-12.35953043 31.61517083 -13.99233442 31.18284622 -15.625 30.75 C-16.43324219 30.54503906 -17.24148438 30.34007812 -18.07421875 30.12890625 C-23.9927271 28.54101377 -28.41174295 26.58825705 -32.8125 22.1875 C-35.35603978 17.50203199 -35.32458654 13.3201626 -33.875 8.3125 C-32.06764418 3.53881131 -29.79686411 1.43589005 -25.25 -0.8984375 C-17.21635323 -4.42935483 -7.7423884 -4.26475369 0 0 Z " fill="#FFD66B" transform="translate(430,773)"/>
<path d="M0 0 C6.16047357 6.4404951 7.45527279 13.63648914 7.3125 22.3125 C7.29932739 23.69683228 7.29932739 23.69683228 7.28588867 25.10913086 C7.03532793 33.45893839 5.27137405 39.26095821 -0.625 45.3125 C-7.67677228 49.5099835 -13.31715042 50.99772849 -21.35546875 49.4765625 C-27.84238646 47.54428914 -31.90539111 42.78268148 -35.31713867 37.09643555 C-37.21794661 32.57001539 -36.6624979 27.46429543 -36.6875 22.625 C-36.72037109 21.51769531 -36.75324219 20.41039062 -36.78710938 19.26953125 C-36.84000706 11.18099428 -35.34276839 6.28216 -29.84204102 0.35888672 C-20.85968558 -7.96126478 -9.40623282 -6.15022915 0 0 Z M-19.94140625 10.8515625 C-22.98524834 14.83791407 -22.96817964 17.50264793 -22.8125 22.375 C-22.82345703 23.12136719 -22.83441406 23.86773438 -22.84570312 24.63671875 C-22.79427375 28.51106476 -22.48095735 30.50048777 -20.40234375 33.87109375 C-18.35941209 36.13132103 -18.35941209 36.13132103 -15.25 36.4375 C-11.6474259 35.76201736 -10.49994801 34.70826787 -8.25 31.875 C-6.75642431 28.88784862 -7.02496565 25.83612064 -7 22.5625 C-6.97421875 21.24636719 -6.9484375 19.93023438 -6.921875 18.57421875 C-7.26371375 14.72039377 -7.83082121 12.8571674 -10.25 9.875 C-14.51095507 8.45468164 -16.26309377 8.15021836 -19.94140625 10.8515625 Z " fill="#FFD66B" transform="translate(377.25,775.125)"/>
<path d="M0 0 C12.54 0 25.08 0 38 0 C38 4.29 38 8.58 38 13 C30.08 13 22.16 13 14 13 C14 14.98 14 16.96 14 19 C20.6 19 27.2 19 34 19 C34 23.29 34 27.58 34 32 C27.4 32 20.8 32 14 32 C14 33.98 14 35.96 14 38 C21.92 38 29.84 38 38 38 C38 42.29 38 46.58 38 51 C25.46 51 12.92 51 0 51 C0 34.17 0 17.34 0 0 Z " fill="#FFD66B" transform="translate(723,772)"/>
<path d="M0 0 C11.22 0 22.44 0 34 0 C34 4.29 34 8.58 34 13 C29.05 13 24.1 13 19 13 C19 21.25 19 29.5 19 38 C23.95 38 28.9 38 34 38 C34 42.29 34 46.58 34 51 C22.78 51 11.56 51 0 51 C0 46.71 0 42.42 0 38 C4.95 38 9.9 38 15 38 C15 29.75 15 21.5 15 13 C10.05 13 5.1 13 0 13 C0 8.71 0 4.42 0 0 Z " fill="#FFD66B" transform="translate(508,772)"/>
<path d="M0 0 C2.96260319 1.81189251 5.42159878 3.84319756 7 7 C7.53804631 11.90415979 7.84938792 16.41636343 5 20.625 C4.34 21.40875 3.68 22.1925 3 23 C3.763125 23.70125 4.52625 24.4025 5.3125 25.125 C8.94417176 29.01004421 10.7502722 32.07352839 11.4375 37.375 C10.71822415 43.33471417 8.75668504 47.44293826 4.25 51.4375 C-0.88685081 53.90713981 -4.93665278 54.25339352 -10.5625 53.5625 C-15.36466827 51.37969624 -18.25930984 48.49596363 -21 44 C-22.551718 39.37651372 -22.29016914 35.95110997 -20.875 31.3125 C-18.86520006 27.76185344 -16.72616311 25.02088344 -14 22 C-14.66 21.360625 -15.32 20.72125 -16 20.0625 C-18.68132158 15.95672633 -18.72136492 12.78012901 -18 8 C-16.37522535 4.26301831 -14.44378693 2.15236683 -11 0 C-7.13681848 -1.28772717 -3.86897014 -1.08769161 0 0 Z M-14 8 C-14.81637162 10.85155156 -14.76112644 13.14000975 -14 16 C-12.10350449 19.14658666 -12.10350449 19.14658666 -9 21 C-5.5 21.83333333 -5.5 21.83333333 -2 21 C0.99520777 18.72103757 2.6018488 16.995378 4 13.5 C4 10.15106223 3.01731406 8.64337705 1 6 C-1.13899327 3.9323065 -2.46415581 3.1128093 -5.375 2.5 C-9.1683897 3.22255042 -11.75858392 4.91248647 -14 8 Z M-16.9375 31.1875 C-18.4953142 35.31112583 -18.12667087 38.77690033 -17 43 C-15.18992689 46.03833701 -13.74623728 47.5439661 -10.75 49.375 C-6.95321356 50.23790601 -3.74686178 50.05427892 0 49 C3.40654184 46.85239754 5.77828524 44.88727423 7 41 C7.46931049 36.7762056 7.28387834 34.54672865 5.3125 30.75 C1.97439585 26.78036263 -0.25792104 25.22171914 -5.4375 24.5625 C-10.64331871 25.20181107 -13.50429246 27.31129794 -16.9375 31.1875 Z " fill="#FFD66B" transform="translate(855,771)"/>
<path d="M0 0 C1.32 0 2.64 0 4 0 C4 4.62 4 9.24 4 14 C5.464375 14.0825 6.92875 14.165 8.4375 14.25 C17.72772367 15.21827683 25.31230864 19.52969058 32 26 C33.98 28.97 33.98 28.97 36 32 C36.33 21.44 36.66 10.88 37 0 C38.32 0 39.64 0 41 0 C41 16.83 41 33.66 41 51 C39.68 51 38.36 51 37 51 C36.76216797 49.85724609 36.76216797 49.85724609 36.51953125 48.69140625 C34.05948653 37.80468901 30.52248422 29.3870321 21 23 C15.26982437 20.04509752 10.46462865 18.92351838 4 18 C4 28.89 4 39.78 4 51 C2.68 51 1.36 51 0 51 C0 34.17 0 17.34 0 0 Z " fill="#FFD66B" transform="translate(450,772)"/>
<path d="M0 0 C3.35132942 1.11710981 3.56552691 1.52941497 5.3125 4.375 C7.84001786 7.992093 9.67836533 9.61090314 14 11 C18.32810128 11.52164466 22.64552227 11.81264117 27 12 C25.83537483 15.4938755 25.11601341 15.77566176 22.125 17.6875 C17.77087222 20.86336023 15.91906794 23.6898297 15 29 C14.79407883 32.35220502 14.81452533 35.64771706 15 39 C14.01 39 13.02 39 12 39 C10.36920386 37.12413887 9.07321935 35.10982902 7.6953125 33.04296875 C4.7934517 29.54602589 2.15393199 28.17721582 -2.33203125 27.48828125 C-3.48058594 27.43027344 -4.62914062 27.37226562 -5.8125 27.3125 C-6.97394531 27.24675781 -8.13539063 27.18101562 -9.33203125 27.11328125 C-10.21246094 27.07589844 -11.09289062 27.03851562 -12 27 C-12 26.01 -12 25.02 -12 24 C-10.35546875 22.60546875 -10.35546875 22.60546875 -8.1875 21.1875 C-4.41737941 18.44983293 -2.43890028 16.57062442 -1 12 C-0.48781253 8.00493771 -0.18875752 4.02248793 0 0 Z " fill="#80D8C3" transform="translate(618,707)"/>
<path d="M0 0 C0.66 0 1.32 0 2 0 C3.3671875 1.64453125 3.3671875 1.64453125 4.875 3.8125 C7.37191735 7.40100163 9.70634286 10.18416667 13.921875 11.68359375 C16.39318441 12.05986454 18.75090401 12.09538284 21.25 12.0625 C22.14203125 12.05347656 23.0340625 12.04445313 23.953125 12.03515625 C24.62859375 12.02355469 25.3040625 12.01195312 26 12 C26.495 13.485 26.495 13.485 27 15 C26.18595703 15.58007812 26.18595703 15.58007812 25.35546875 16.171875 C24.28232422 16.95304687 24.28232422 16.95304687 23.1875 17.75 C22.47980469 18.26046875 21.77210938 18.7709375 21.04296875 19.296875 C17.71718573 22.06942069 15.6493902 24.670732 15 29 C14.93311409 30.91561254 14.91468281 32.83335592 14.9375 34.75 C14.94652344 35.73484375 14.95554687 36.7196875 14.96484375 37.734375 C14.97644531 38.48203125 14.98804688 39.2296875 15 40 C11.87657758 38.64283724 11.02706207 38.0410296 9.0625 35.0625 C6.1440504 30.72904453 3.56154238 29.32124139 -1.55078125 28.26953125 C-2.79214844 28.11871094 -4.03351562 27.96789062 -5.3125 27.8125 C-6.56675781 27.65394531 -7.82101562 27.49539063 -9.11328125 27.33203125 C-10.06589844 27.22246094 -11.01851562 27.11289062 -12 27 C-10.87846085 23.63538254 -10.49271289 23.46820772 -7.625 21.75 C-3.86944161 19.14111825 -2.00274646 16.4762602 -1 12 C-0.4943369 8.00476088 -0.19151419 4.02179807 0 0 Z " fill="#80D8C3" transform="translate(587,363)"/>
<path d="M0 0 C0.66 0 1.32 0 2 0 C4.31196189 4.8885552 6.62312191 9.77748844 8.93359375 14.66674805 C9.71691121 16.32407444 10.50043388 17.98130386 11.28417969 19.63842773 C13.51994701 24.36584623 15.75053546 29.09564935 17.97570801 33.82806396 C18.94270093 35.87850153 19.91727058 37.92516572 20.89355469 39.97119141 C21.71581543 41.71215088 21.71581543 41.71215088 22.5546875 43.48828125 C23.03147949 44.49028564 23.50827148 45.49229004 23.99951172 46.5246582 C25 49 25 49 25 52 C9.16 52 -6.68 52 -23 52 C-21.07551634 46.22654902 -19.20300066 40.93082069 -16.6015625 35.5078125 C-16.28472504 34.836362 -15.96788757 34.1649115 -15.64144897 33.47311401 C-14.64073086 31.35478023 -13.6331574 29.23980178 -12.625 27.125 C-11.62825952 25.02243994 -10.63297301 22.91919637 -9.63787842 20.81585693 C-8.99431018 19.45575179 -8.35015557 18.09592393 -7.7053833 16.73638916 C-5.07589659 11.1850598 -2.51558977 5.60391878 0 0 Z M0 9 C-2.56588569 14.53477618 -5.12931399 20.07068099 -7.69042969 25.60766602 C-8.56279423 27.49274756 -9.43584015 29.37751392 -10.30957031 31.26196289 C-11.56232343 33.96418829 -12.81265487 36.66752235 -14.0625 39.37109375 C-14.45622803 40.21900986 -14.84995605 41.06692596 -15.25561523 41.9405365 C-15.79617554 43.11163719 -15.79617554 43.11163719 -16.34765625 44.30639648 C-16.66742432 44.99700668 -16.98719238 45.68761688 -17.31665039 46.39915466 C-18.06543255 47.86318598 -18.06543255 47.86318598 -18 49 C-5.46 49 7.08 49 20 49 C15.75392145 39.29467759 11.49690834 29.61708476 7.0625 20 C6.56943359 18.9275 6.07636719 17.855 5.56835938 16.75 C4.38020986 14.16606319 3.19076187 11.58273371 2 9 C1.34 9 0.68 9 0 9 Z " fill="#FFD66B" transform="translate(632,771)"/>
<path d="M0 0 C1.32 0 2.64 0 4 0 C4 11.55 4 23.1 4 35 C6.97 35 9.94 35 13 35 C13 35.99 13 36.98 13 38 C10.03 38 7.06 38 4 38 C4 42.29 4 46.58 4 51 C2.68 51 1.36 51 0 51 C0 46.71 0 42.42 0 38 C-7.92 38 -15.84 38 -24 38 C-22.87497456 31.24984738 -22.87497456 31.24984738 -20.6640625 28.22265625 C-20.18195312 27.55097412 -19.69984375 26.87929199 -19.203125 26.18725586 C-18.68234375 25.48608643 -18.1615625 24.78491699 -17.625 24.0625 C-17.09132813 23.32974854 -16.55765625 22.59699707 -16.0078125 21.84204102 C-14.89754417 20.31918623 -13.78323518 18.7992697 -12.66503906 17.28222656 C-11.04414325 15.06050603 -9.46610865 12.81418531 -7.8984375 10.5546875 C-6.93256942 9.18209617 -5.96643538 7.80969195 -5 6.4375 C-4.33411865 5.4640564 -4.33411865 5.4640564 -3.65478516 4.47094727 C-2.375 2.68359375 -2.375 2.68359375 0 0 Z M-1 8 C-1.95786447 9.20266476 -2.87109834 10.44091478 -3.765625 11.69140625 C-4.32636719 12.47193359 -4.88710938 13.25246094 -5.46484375 14.05664062 C-6.34849609 15.29704102 -6.34849609 15.29704102 -7.25 16.5625 C-8.11044922 17.76229492 -8.11044922 17.76229492 -8.98828125 18.98632812 C-10.12320917 20.56979818 -11.25541492 22.15522318 -12.38476562 23.74267578 C-13.42506803 25.19652041 -14.47514843 26.64344275 -15.53710938 28.08154297 C-18.12051242 31.21067856 -18.12051242 31.21067856 -19 35 C-12.73 35 -6.46 35 0 35 C0 26.09 0 17.18 0 8 C-0.33 8 -0.66 8 -1 8 Z " fill="#FFD66B" transform="translate(801,772)"/>
<path d="M0 0 C2.87367759 1.30014166 4.21898581 2.23583088 6.4375 4.625 C10.45877256 8.18669855 15.28860113 7.37460734 20.3671875 7.17578125 C21.23601563 7.11777344 22.10484375 7.05976563 23 7 C21.69985834 9.87367759 20.76416912 11.21898581 18.375 13.4375 C14.81330145 17.45877256 15.62539266 22.28860113 15.82421875 27.3671875 C15.88222656 28.23601562 15.94023438 29.10484375 16 30 C12.59263997 28.38331641 9.92428638 26.38560204 7 24 C4.23547967 22.61773984 1.9538637 22.90474613 -1.125 22.9375 C-2.22070312 22.94652344 -3.31640625 22.95554687 -4.4453125 22.96484375 C-5.70988281 22.98224609 -5.70988281 22.98224609 -7 23 C-5.43975092 19.64861297 -3.61063945 17.61063945 -1 15 C0.09506492 11.71480525 0.09960608 9.26336585 0.0625 5.8125 C0.04896484 4.18248047 0.04896484 4.18248047 0.03515625 2.51953125 C0.02355469 1.68808594 0.01195312 0.85664063 0 0 Z " fill="#80D8C3" transform="translate(575,467)"/>
<path d="M0 0 C0.33 3.63 0.66 7.26 1 11 C-3.0084034 8.9957983 -4.41409657 7.50944037 -7 4 C-1.125 0 -1.125 0 0 0 Z " fill="#7ED6C3" transform="translate(643,631)"/>
</svg>
